<?xml version="1.0" encoding="iso-8859-1"?>
<!-- Generator: Adobe Illustrator 18.0.0, SVG Export Plug-In . SVG Version: 6.00 Build 0)  -->
<!DOCTYPE svg PUBLIC "-//W3C//DTD SVG 1.1//EN" "http://www.w3.org/Graphics/SVG/1.1/DTD/svg11.dtd">
<svg version="1.1" id="Capa_1" xmlns="http://www.w3.org/2000/svg" xmlns:xlink="http://www.w3.org/1999/xlink" x="0px" y="0px"
	 viewBox="0 0 434.747 434.747" style="enable-background:new 0 0 434.747 434.747;" xml:space="preserve">
<g>
	<polygon points="434.747,361.387 400.243,389.129 365.74,361.387 393.481,395.891 365.74,430.395 400.243,402.655 434.747,430.395 
		407.006,395.891 	"/>
	<g>
		<path d="M371.285,237.836l-17.098-8.047l-24.584,17.32c2.078,1.1,4.174,2.203,5.869,3.295H324.92l-6.283,4.422
			c-2.744,1.926-5.916,2.881-9.089,2.881c-3.62,0-7.224-1.24-10.151-3.697c-1.238-1.045-2.272-2.254-3.113-3.564l-28.078-0.049
			c-0.185-7.107-0.523-14.178-1.031-21.18c8.051,1.18,20.076,3.625,28.344,5.498l18.297-38.846l-25.047-35.551
			c-4.127-5.846-3.788-13.748,0.818-19.225c3.064-3.658,7.531-5.629,12.075-5.629c2.279,0,4.574,0.494,6.716,1.502l14.803,6.971
			c-26.34-25.709-61.09-42.854-99.783-46.52V20.124c0-8.709-7.055-15.772-15.773-15.772c-8.717,0-15.772,7.063-15.772,15.772v77.295
			c-27.034,2.572-52.142,11.728-73.845,25.746l41.959,50.039c5.176,6.17,4.867,15.25-0.708,21.057
			c-2.126,2.219-4.806,3.396-7.595,4.098c-0.354,2.287-0.814,4.438-1.125,6.77c-8.085,1.055-15.896,2.373-23.443,3.889
			c1.602-6.068,3.651-11.738,5.792-17.313l-22.92-17.66c-1.927,1.002-3.928,1.939-5.776,3.002c1.262-1.523,2.664-2.918,3.988-4.389
			l-25.045-19.301c-25.524,29.135-41.111,67.184-41.111,108.879c0,53.896,26,101.717,65.988,131.978l3.711-26.58l-27.972-17.736
			c-6.285-3.982-8.919-11.791-6.36-18.762c2.294-6.277,8.255-10.336,14.787-10.336c0.722,0,1.462,0.047,2.201,0.154l32.795,4.582
			l2.155-3.402c-0.708-2.266-1.616-4.338-2.233-6.68c1.88,0.379,3.943,0.617,5.854,0.973l11.969-18.861
			c0.601-0.941,1.324-1.734,2.079-2.504c-9.058-1.357-17.345-2.988-24.86-4.807c-0.693-5.291-1.141-10.713-1.434-16.205
			l26.371,0.008c0.17,6.709,0.508,13.379,0.97,20.002c2.866-2.434,6.454-3.82,10.197-3.82c1.819,0,3.651,0.316,5.439,0.971
			c6.977,2.557,11.213,9.635,10.182,16.99l-4.592,32.803l10.307,6.537c-1.881-7.793-3.574-16.326-4.961-25.777
			c7.008,0.51,14.079,0.853,21.18,1.033v26.385c-5.375-0.291-10.674-0.74-15.85-1.408l17.299,10.967
			c6.283,3.98,8.918,11.791,6.361,18.76c-1.417,3.883-4.313,6.754-7.811,8.504v4.035c-0.584-0.908-1.185-2.133-1.77-3.156
			c-1.665,0.586-3.39,0.955-5.207,0.955c-0.724,0-1.464-0.047-2.202-0.156l-32.793-4.582l-17.746,27.973
			c-0.047,0.078-0.124,0.131-0.17,0.209c21.734,10.512,46.011,16.574,71.734,16.574c91.327,0,165.618-74.299,165.618-165.619
			C373.257,253.926,372.471,245.823,371.285,237.836z M104.035,204.735c-0.924,3.535-1.832,7.068-2.603,10.721
			c-5.346,1.656-10.507,3.404-15.235,5.352C91.158,215.008,97.211,209.647,104.035,204.735z M97.658,241.657
			c-0.246,2.887-0.447,5.799-0.586,8.732H79.836C84.334,247.479,90.249,244.506,97.658,241.657z M79.79,274.049h17.282
			c0.139,2.949,0.34,5.869,0.586,8.766C90.233,279.957,84.289,276.977,79.79,274.049z M86.167,303.655
			c4.745,1.949,9.92,3.705,15.266,5.361c0.771,3.65,1.679,7.193,2.618,10.736C97.211,314.831,91.143,309.469,86.167,303.655z
			 M147.072,250.397l-26.371-0.008c0.293-5.482,0.74-10.889,1.434-16.174c7.839-1.895,16.449-3.604,25.969-4.998
			C147.596,236.219,147.256,243.29,147.072,250.397z M160.857,156.028c-3.634,0.764-7.177,1.682-10.719,2.605
			c4.929-6.826,10.273-12.885,16.064-17.846C164.264,145.532,162.521,150.684,160.857,156.028z M195.793,299.127
			c-8.318-0.209-16.266-0.633-23.814-1.24c-0.6-7.549-1.016-15.496-1.232-23.83h25.046V299.127z M195.809,250.397h-25.062
			c0.216-8.332,0.632-16.264,1.232-23.813c7.549-0.607,15.496-1.033,23.83-1.24V250.397z M195.809,201.678
			c-7.116,0.184-14.188,0.523-21.195,1.031c1.402-9.527,3.112-18.139,5.006-25.979c5.285-0.693,10.705-1.141,16.189-1.439V201.678z
			 M195.809,151.663c-2.942,0.145-5.853,0.338-8.748,0.594c2.602-6.777,5.313-12.262,7.993-16.615
			c0.263,0.371,0.462,0.779,0.755,1.125V151.663z M268.205,274.057l26.371,0.008c-0.294,5.484-0.74,10.906-1.433,16.189
			c-7.841,1.895-16.451,3.605-25.97,4.998C267.682,288.245,268.02,281.174,268.205,274.057z M288.199,209.016
			c-7.563-1.516-15.373-2.834-23.46-3.889c-1.048-8.08-2.372-15.889-3.882-23.443c7.179,1.902,13.986,4.234,20.486,6.854
			C283.948,195.04,286.289,201.838,288.199,209.016z M265.154,158.639c-3.543-0.93-7.086-1.848-10.734-2.611
			c-1.664-5.352-3.421-10.512-5.362-15.256C254.865,145.741,260.225,151.799,265.154,158.639z M219.469,136.729
			c0.292-0.34,0.477-0.748,0.738-1.109c2.682,4.35,5.392,9.842,8.012,16.637c-2.896-0.256-5.808-0.449-8.75-0.594V136.729z
			 M219.469,175.292c5.482,0.299,10.906,0.746,16.188,1.439c1.895,7.84,3.605,16.451,5.007,25.979
			c-7.008-0.508-14.093-0.855-21.194-1.031V175.292z M219.453,390.084v-17.275c2.941-0.146,5.869-0.338,8.766-0.592
			C225.352,379.649,222.379,385.586,219.453,390.084z M235.656,347.741c-5.281,0.693-10.705,1.141-16.203,1.439v-26.385
			c7.117-0.18,14.187-0.523,21.21-1.033C239.262,331.289,237.551,339.899,235.656,347.741z M243.298,297.887
			c-7.564,0.607-15.495,1.023-23.845,1.24v-25.07h25.076C244.314,282.399,243.898,290.338,243.298,297.887z M219.469,250.397
			v-25.053c8.334,0.207,16.266,0.633,23.829,1.24c0.601,7.549,1.017,15.488,1.231,23.813H219.469z M249.058,383.7
			c1.941-4.744,3.698-9.904,5.362-15.258c3.648-0.762,7.191-1.678,10.721-2.609C260.225,372.67,254.865,378.733,249.058,383.7z
			 M281.344,335.942c-6.516,2.611-13.308,4.943-20.486,6.854c1.51-7.555,2.834-15.373,3.882-23.451
			c8.087-1.057,15.897-2.373,23.46-3.891C286.289,322.633,283.948,329.442,281.344,335.942z M292.834,365.686
			c2.204-3.852,4.283-7.871,6.238-12.008c4.145-1.957,8.148-4.035,12-6.238C305.589,354.086,299.474,360.202,292.834,365.686z
			 M311.242,319.752c0.924-3.543,1.848-7.086,2.604-10.736c5.344-1.656,10.521-3.412,15.264-5.361
			C324.135,309.463,318.065,314.823,311.242,319.752z M317.619,282.815c0.246-2.897,0.446-5.809,0.585-8.75h17.268
			C330.975,276.985,325.043,279.965,317.619,282.815z"/>
	</g>
	<polygon points="331.991,194.292 309.548,241.934 352.602,211.604 400.243,234.047 369.912,190.995 392.357,143.352 
		349.305,173.682 301.661,151.239 	"/>
	<polygon points="74.23,126.584 147.873,183.34 88.139,112.098 144.885,38.454 73.643,98.196 0,41.444 59.734,112.684 
		2.989,186.327 	"/>
	<polygon points="145.934,366.071 188.8,372.063 152.247,348.881 158.239,306.012 135.058,342.565 92.189,336.573 128.742,359.754 
		122.75,402.624 	"/>
</g>
<g>
</g>
<g>
</g>
<g>
</g>
<g>
</g>
<g>
</g>
<g>
</g>
<g>
</g>
<g>
</g>
<g>
</g>
<g>
</g>
<g>
</g>
<g>
</g>
<g>
</g>
<g>
</g>
<g>
</g>
</svg>
